<svg width="62" height="62" viewBox="0 0 62 62" fill="none" xmlns="http://www.w3.org/2000/svg">
<path d="M62.0053 30.9993C62.0053 36.5648 60.5358 41.7912 57.9625 46.3128C56.1539 49.4912 53.7934 52.3238 51.0139 54.6711C48.0683 57.1646 44.6505 59.1195 40.9135 60.3829C37.8016 61.4268 34.4703 61.9987 31.006 61.9987C21.8232 61.9987 13.5647 58.0024 7.89279 51.6589C7.55367 51.2865 7.22787 50.9009 6.9087 50.5086C5.99109 49.3782 5.15325 48.1813 4.40188 46.9312C1.60914 42.27 0 36.8242 0 30.9993C0 13.8772 13.8839 0 31.006 0C48.1214 0 62.0053 13.8772 62.0053 30.9993Z" fill="#E8E1EF"/>
<path d="M22.9807 24.7876C22.9807 24.7876 15.8871 30.1377 15.3592 36.6354C14.5599 46.4692 25.7461 42.1671 26.9756 35.898C28.2051 29.6283 22.9807 24.7876 22.9807 24.7876Z" fill="black"/>
<path d="M22.3447 24.1179C22.3447 24.1179 19.7847 21.2893 20.5221 16.906C21.0221 13.9344 22.3447 12.9723 22.3447 12.9723C22.3447 12.9723 20.3306 8.91548 26.327 9.16151C32.3234 9.40754 35.8515 12.3512 35.8515 12.3512C35.8515 12.3512 38.5924 11.0054 39.8219 14.2011C41.0513 17.3968 39.8219 22.1118 39.8219 22.1118L22.3447 24.1179Z" fill="black"/>
<path d="M51.0115 54.6724C48.0658 57.166 44.648 59.1209 40.9111 60.3842C37.7992 61.4282 34.4679 62.0001 31.0035 62.0001C24.8196 62.0001 19.0546 60.1848 14.2139 57.0596C13.9479 56.8933 13.6886 56.7204 13.4359 56.5409C11.3946 55.1445 9.53276 53.5022 7.89036 51.6603C7.55125 51.2879 7.22542 50.9023 6.90625 50.51L26.5285 36.2936C26.5418 36.287 27.2865 35.7417 27.2865 35.7417L34.9932 36.3667L38.1915 36.6261L51.0115 54.6724Z" fill="#F7B369"/>
<path d="M27.2894 36.2391L7.89326 51.659C7.55414 51.2866 7.22832 50.901 6.90915 50.5087C5.99153 49.3783 5.15372 48.1814 4.40234 46.9313C5.00079 46.3927 5.62583 45.8541 6.27081 45.3155C15.161 37.9015 23.9515 36.5383 26.5314 36.2923C27.0301 36.2458 27.2894 36.2391 27.2894 36.2391Z" fill="#F7B369"/>
<path d="M35.5086 29.0591L35.3616 36.8814C35.3616 36.8814 33.9985 39.0883 29.7077 39.3237C26.5106 39.4992 25.5332 37.7165 25.5332 37.7165L26.4348 30.8956L34.2053 29.3237L35.5086 29.0591Z" fill="#F48462"/>
<path d="M57.9608 46.3128C56.1521 49.4912 53.7916 52.3238 51.0122 54.6711C48.0665 57.1646 44.6487 59.1195 40.9118 60.3829L45.9254 54.2721L34.9939 36.3654L34.9141 36.239C34.9141 36.239 36.1708 36.2856 38.1922 36.6247C42.7936 37.3893 51.3446 39.6568 57.9608 46.3128Z" fill="#F7B369"/>
<path d="M35.5035 28.6123C35.4802 28.8118 35.3978 29.0458 35.2728 29.3131C33.5433 32.9284 27.7411 34.3055 25.8945 34.4245L26.4238 30.8205L35.5035 28.6123Z" fill="black"/>
<path d="M25.2079 14.0947C25.2079 14.0947 21.1358 23.1757 22.5222 28.313C23.9086 33.4503 28.5844 32.6883 31.3865 31.7248C34.1885 30.7613 35.5018 29.0611 35.5018 29.0611C35.5018 29.0611 38.1023 29.9707 39.8704 27.5617C41.6385 25.1526 40.5912 22.3565 39.1077 21.7036C37.6243 21.0506 35.8422 22.1092 35.8422 22.1092L37.2559 19.472C37.2559 19.472 31.5441 5.94724 25.2079 14.0947Z" fill="#F48462"/>
<path d="M35.8511 22.1088C35.8511 22.1088 31.9293 22.9 29.2051 18.5361C26.4809 14.1721 26.7309 12.3794 26.7309 12.3794L24.0166 16.885C24.0166 16.885 23.4095 13.7612 24.6589 11.7697C25.9083 9.77819 27.2056 10.1911 27.2056 10.1911L35.8525 12.3515L38.1292 19.2821L35.8511 22.1088Z" fill="black"/>
<path d="M25.522 25.7279C25.3797 25.7279 25.2481 25.6355 25.2042 25.4932C24.6004 23.5217 25.9928 21.5255 26.0513 21.4417C26.1577 21.2915 26.3638 21.2575 26.5141 21.3626C26.6644 21.4683 26.6996 21.6765 26.5939 21.8261C26.5819 21.8434 25.3325 23.6427 25.8399 25.2984C25.8931 25.4739 25.7946 25.6601 25.6191 25.714C25.5872 25.7233 25.5539 25.7279 25.522 25.7279Z" fill="black"/>
<path d="M36.2252 26.4293C36.1428 26.4293 36.061 26.3987 35.9965 26.3375C35.8629 26.2112 35.8575 26.0011 35.9839 25.8681L38.4681 23.2496C38.5944 23.1153 38.8052 23.1113 38.9375 23.2376C39.0712 23.3633 39.0765 23.5741 38.9495 23.707L36.4653 26.3256C36.4014 26.3947 36.313 26.4293 36.2252 26.4293Z" fill="black"/>
<path d="M38.8519 25.733C38.8353 25.733 38.8173 25.7317 38.8007 25.7291L37.0885 25.4651C36.907 25.4372 36.7826 25.2669 36.8106 25.0861C36.8385 24.9045 37.0134 24.7829 37.1896 24.8081L38.9018 25.0721C39.0833 25.1 39.2077 25.2703 39.1797 25.4511C39.1545 25.6154 39.0128 25.733 38.8519 25.733Z" fill="black"/>
<path d="M28.81 28.3368C27.9462 28.3368 26.9661 27.7537 26.8245 27.6659C26.7227 27.6028 26.6622 27.4904 26.6662 27.3714C26.6709 27.2517 26.7387 27.1433 26.8444 27.0881L29.6046 25.6465C29.6917 25.6006 29.7947 25.5953 29.8878 25.6345C29.9789 25.6731 30.0481 25.7502 30.0767 25.8447C30.0953 25.9078 30.5295 27.39 29.6086 28.0948C29.3805 28.2703 29.1019 28.3368 28.81 28.3368ZM27.7181 27.3813C28.2441 27.6147 28.9004 27.7996 29.2043 27.5675C29.5394 27.3102 29.5547 26.8035 29.5155 26.4431L27.7181 27.3813Z" fill="black"/>
<path d="M23.771 18.2592C23.6128 18.2592 23.4725 18.1455 23.4445 17.984C23.4126 17.8031 23.5343 17.6309 23.7145 17.5996L25.3343 17.3184C25.5165 17.2805 25.6874 17.4075 25.7186 17.5883C25.7505 17.7692 25.6289 17.9414 25.4487 17.9727L23.8289 18.2539C23.8096 18.2579 23.7903 18.2592 23.771 18.2592Z" fill="black"/>
<path d="M30.5026 19.3223C30.4521 19.3223 30.4009 19.3104 30.3524 19.2864L27.6966 17.9419C27.5324 17.8588 27.4665 17.6587 27.5496 17.4951C27.6328 17.3308 27.8343 17.2663 27.9965 17.3481L30.6522 18.6933C30.8165 18.7764 30.8823 18.9766 30.7992 19.1401C30.7414 19.2558 30.6236 19.3223 30.5026 19.3223Z" fill="black"/>
<path d="M40.803 24.7874C40.803 24.7874 46.4582 29.6899 45.6597 37.6798C44.8604 45.6697 36.9377 44.6443 35.2733 41.7286C32.7526 37.3114 35.5087 29.0609 35.5087 29.0609C35.5087 29.0609 40.3668 29.8741 40.803 24.7874Z" fill="black"/>
<path d="M23.7715 22.0019C23.7389 22.0019 23.7063 21.9973 23.6744 21.9873C23.4982 21.9335 23.4005 21.7479 23.4543 21.5724L23.9078 20.0962L23.5148 19.6148C23.3984 19.4725 23.4191 19.2637 23.5614 19.1474C23.703 19.031 23.9131 19.0516 24.0288 19.1939L24.5348 19.813C24.6053 19.8994 24.6286 20.0151 24.5953 20.1208L24.0893 21.7672C24.0461 21.9109 23.9138 22.0019 23.7715 22.0019Z" fill="black"/>
<path d="M28.7286 22.4448C28.696 22.4448 28.6634 22.4401 28.6309 22.4301C28.4546 22.3769 28.3569 22.1907 28.4108 22.0152L28.8623 20.5437L28.2831 19.8675C28.1634 19.7278 28.18 19.5184 28.3197 19.3987C28.4586 19.2797 28.6694 19.2956 28.7885 19.4353L29.4866 20.2505C29.5605 20.3369 29.585 20.4559 29.5518 20.5643L29.0464 22.2107C29.0026 22.3523 28.8702 22.4448 28.7286 22.4448Z" fill="black"/>
<path d="M29.6599 39.4819C26.83 39.4819 25.1537 37.9386 25.1291 37.9159C24.9961 37.7903 24.9901 37.5801 25.1165 37.4465C25.2421 37.3135 25.4522 37.3075 25.5859 37.4319C25.7195 37.5576 28.8953 40.4473 34.0519 37.5529C34.2134 37.4618 34.4156 37.5196 34.5047 37.6792C34.5951 37.8395 34.5379 38.0423 34.3783 38.132C32.5837 39.1388 30.9938 39.4819 29.6599 39.4819Z" fill="white"/>
<path d="M17.029 46.281C16.8295 46.4472 12.6337 50.1908 14.2163 57.0596C13.9503 56.8934 13.691 56.7205 13.4383 56.5409C12.1949 49.6655 16.5436 45.8155 16.5968 45.7756C16.7364 45.6559 16.9425 45.6692 17.0622 45.8089C17.1826 45.9485 17.1686 46.1613 17.029 46.281Z" fill="white"/>
</svg>
